<?xml version="1.0" standalone="no"?>
<!DOCTYPE svg PUBLIC "-//W3C//DTD SVG 20010904//EN"
 "http://www.w3.org/TR/2001/REC-SVG-20010904/DTD/svg10.dtd">
<svg version="1.0" xmlns="http://www.w3.org/2000/svg"
 width="1890.000000pt" height="1417.000000pt" viewBox="0 0 1890.000000 1417.000000"
 preserveAspectRatio="xMidYMid meet">
<metadata>
Created by potrace 1.16, written by Peter Selinger 2001-2019
</metadata>
<g transform="translate(0.000000,1417.000000) scale(0.100000,-0.100000)"
fill="#000000" stroke="none">
<path d="M7378 13217 c-95 -53 -160 -120 -232 -241 -32 -54 -111 -178 -175
-275 -515 -775 -1147 -1386 -1891 -1831 -151 -90 -218 -139 -288 -214 -74 -79
-88 -102 -67 -110 8 -3 23 -3 35 -1 12 2 41 -9 67 -25 26 -17 53 -30 60 -30 7
0 17 -10 24 -22 13 -27 49 -57 67 -58 7 0 31 -8 55 -19 78 -34 100 -42 104
-38 2 3 -31 19 -74 36 -43 18 -88 36 -100 41 -22 9 -51 50 -36 50 5 0 20 -11
35 -25 15 -14 34 -25 42 -25 8 0 18 -4 21 -10 3 -5 15 -10 25 -10 11 0 35 -9
55 -20 20 -11 42 -20 49 -20 8 0 34 -10 58 -22 54 -28 52 -27 46 -33 -3 -3
-27 4 -53 15 -26 11 -50 19 -52 16 -5 -5 44 -28 100 -47 20 -7 37 -17 37 -22
0 -4 17 -15 38 -23 20 -9 91 -42 157 -75 85 -41 136 -60 173 -64 29 -3 71 -14
94 -25 23 -11 45 -20 50 -20 5 0 27 -8 51 -19 77 -34 100 -42 104 -38 2 2 -56
29 -128 58 -72 30 -124 56 -114 57 9 2 22 -1 28 -7 6 -6 21 -11 34 -11 13 0
23 -4 23 -10 0 -5 9 -10 19 -10 11 0 23 -4 26 -10 3 -5 17 -10 31 -10 13 0 24
-4 24 -10 0 -5 7 -10 15 -10 8 0 23 -4 33 -9 9 -6 47 -24 85 -41 37 -17 67
-33 67 -35 0 -4 -24 5 -117 42 -7 3 -13 3 -13 0 0 -7 59 -37 72 -37 5 0 28 -9
50 -20 23 -11 46 -20 50 -20 5 0 28 -9 50 -20 23 -11 46 -20 50 -20 5 0 43
-16 84 -36 42 -20 85 -34 95 -31 12 3 17 1 13 -5 -5 -7 3 -9 22 -4 19 4 24 3
15 -2 -18 -12 0 -23 39 -24 17 -1 30 -4 30 -8 0 -10 28 -21 65 -26 16 -2 33
-8 38 -13 5 -5 16 -7 23 -4 9 3 14 -2 14 -12 0 -10 5 -15 14 -12 17 7 102 -21
168 -54 10 -5 27 -9 38 -9 11 0 20 -4 20 -10 0 -5 9 -10 19 -10 11 0 23 -4 26
-10 3 -5 17 -10 31 -10 13 0 24 -4 24 -10 0 -5 9 -10 19 -10 11 0 23 -4 26
-10 3 -5 14 -10 25 -10 10 0 44 -13 75 -30 31 -16 63 -30 71 -30 7 0 29 -9 49
-20 20 -11 44 -20 55 -20 11 0 20 -4 20 -10 0 -5 9 -10 19 -10 11 0 23 -4 26
-10 3 -5 17 -10 31 -10 13 0 24 -4 24 -10 0 -5 9 -10 20 -10 11 0 20 -4 20
-10 0 -5 9 -10 19 -10 11 0 23 -4 26 -10 3 -5 15 -10 25 -10 11 0 35 -9 55
-20 20 -11 44 -20 55 -20 11 0 20 -4 20 -10 0 -5 9 -10 19 -10 11 0 23 -4 26
-10 3 -5 14 -10 25 -10 10 0 44 -13 75 -30 31 -16 62 -30 69 -30 15 0 118 -51
113 -56 -4 -4 -73 22 -186 70 -66 28 -96 30 -40 2 18 -9 36 -16 40 -16 5 0 33
-11 63 -25 30 -14 60 -25 65 -25 6 0 11 -4 11 -10 0 -5 4 -10 9 -10 6 0 48
-18 95 -40 47 -22 90 -40 95 -40 15 0 160 -51 190 -67 15 -7 30 -13 34 -13 5
0 23 -6 40 -14 69 -29 90 -37 94 -33 2 2 -72 35 -164 72 -262 106 -334 137
-330 142 4 4 26 -4 104 -38 24 -11 47 -19 53 -19 5 0 25 -9 45 -20 20 -11 44
-20 55 -20 10 0 22 -4 25 -10 3 -5 15 -10 25 -10 11 0 35 -9 55 -20 20 -11 44
-20 55 -20 11 0 20 -4 20 -10 0 -5 9 -10 19 -10 11 0 23 -4 26 -10 3 -5 17
-10 31 -10 13 0 24 -4 24 -10 0 -5 7 -10 15 -10 8 0 30 -9 50 -20 20 -11 44
-20 55 -20 11 0 20 -4 20 -10 0 -5 9 -10 19 -10 11 0 23 -4 26 -10 3 -5 15
-10 25 -10 11 0 35 -9 55 -20 20 -11 44 -20 55 -20 11 0 20 -4 20 -10 0 -5 9
-10 19 -10 10 0 21 -7 24 -14 4 -11 1 -13 -11 -10 -14 4 -13 3 2 -6 14 -10 20
-10 26 0 6 10 13 9 30 -3 12 -8 29 -13 36 -10 8 3 14 0 14 -6 0 -6 9 -11 20
-11 11 0 20 -5 20 -11 0 -6 -9 -8 -22 -3 -27 8 -23 2 11 -16 15 -8 21 -8 17
-1 -8 12 26 16 38 4 13 -14 41 -12 58 4 20 18 24 48 8 58 -5 3 -10 15 -10 25
0 11 -9 35 -20 55 -11 20 -20 42 -20 49 0 8 -13 40 -30 71 -16 31 -30 63 -30
70 0 7 -13 39 -30 70 -16 31 -30 63 -30 71 0 7 -9 29 -20 49 -11 20 -20 42
-20 50 0 8 -9 30 -20 50 -11 20 -20 42 -20 50 0 8 -4 15 -10 15 -5 0 -10 9
-10 19 0 10 -13 45 -30 76 -16 31 -30 63 -30 71 0 7 -9 29 -20 49 -11 20 -20
42 -20 49 0 8 -8 31 -19 53 -22 46 -42 105 -37 110 2 2 28 -52 57 -121 29 -69
56 -126 61 -126 4 0 4 8 -1 18 -5 9 -18 40 -29 67 -12 28 -35 81 -51 118 -17
38 -31 71 -31 73 0 3 -11 30 -25 60 -14 30 -25 59 -25 63 0 5 -10 29 -21 53
-12 23 -25 52 -30 63 -4 11 -11 29 -15 40 -4 11 -8 25 -9 31 0 6 -6 18 -14 27
-7 9 -10 20 -7 25 3 6 -1 15 -9 22 -7 6 -12 17 -9 24 3 8 -2 16 -10 19 -9 4
-16 5 -16 4 0 -1 15 -38 34 -82 42 -100 50 -125 39 -125 -9 0 -33 48 -33 66 0
7 -13 38 -30 69 -16 31 -30 63 -30 71 0 7 -9 29 -20 49 -11 20 -20 42 -20 50
0 8 -9 30 -20 50 -11 20 -20 42 -20 49 0 8 -13 40 -30 71 -16 31 -30 63 -30
71 0 7 -9 29 -20 49 -11 20 -20 44 -20 55 0 10 -4 22 -10 25 -5 3 -10 15 -10
26 0 10 -4 19 -10 19 -5 0 -10 9 -10 20 0 11 -9 35 -20 55 -11 20 -20 44 -20
55 0 10 -4 22 -10 25 -5 3 -10 15 -10 26 0 10 -3 19 -7 19 -9 0 -33 49 -33 67
0 7 -9 28 -20 48 -11 20 -20 42 -20 50 0 8 -9 30 -20 50 -11 20 -20 42 -20 50
0 8 -9 30 -20 50 -11 20 -20 42 -20 49 0 8 -13 40 -30 71 -16 31 -30 65 -30
75 0 11 -4 22 -10 25 -5 3 -10 15 -10 26 0 10 -4 19 -10 19 -5 0 -10 9 -10 20
0 11 -9 35 -20 55 -11 20 -20 42 -20 50 0 8 -4 15 -10 15 -5 0 -10 11 -10 24
0 14 -4 28 -10 31 -5 3 -10 15 -10 26 0 10 -4 19 -10 19 -5 0 -10 11 -10 24 0
14 -4 28 -10 31 -5 3 -10 15 -10 26 0 10 -4 19 -10 19 -5 0 -10 9 -10 20 0 11
-4 20 -10 20 -5 0 -10 11 -10 24 0 14 -4 28 -10 31 -5 3 -10 13 -10 22 0 8 -7
30 -16 49 -9 19 -14 37 -12 40 3 2 18 -25 33 -61 29 -68 43 -84 22 -25 -27 73
-54 123 -61 109 -3 -8 -3 -4 0 8 3 14 -7 47 -25 87 -17 35 -31 68 -31 72 0 5
-13 35 -29 68 -18 36 -31 53 -35 45 -3 -8 -3 -4 0 8 3 14 -7 47 -25 87 -17 35
-31 68 -31 72 0 5 -14 36 -30 69 -16 33 -30 64 -30 69 0 5 -12 33 -26 63 -19
38 -29 50 -35 41 -6 -10 -14 -6 -31 17 -13 16 -42 50 -64 75 l-41 45 -2 93
c-1 52 -4 99 -7 107 -6 15 24 47 37 39 14 -8 90 6 84 16 -14 23 -58 15 -127
-23z"/>
<path d="M11584 13183 c-13 -40 -47 -101 -70 -126 -14 -15 -21 -32 -18 -41 4
-10 -2 -23 -14 -34 -24 -20 -62 -86 -62 -107 0 -8 -9 -30 -20 -50 -11 -20 -20
-42 -20 -49 0 -8 -13 -40 -30 -71 -16 -31 -30 -63 -30 -71 0 -7 -9 -29 -20
-49 -11 -20 -20 -42 -20 -49 0 -8 -13 -40 -30 -71 -16 -31 -30 -63 -30 -71 0
-7 -9 -29 -20 -49 -11 -20 -20 -44 -20 -55 0 -11 -4 -20 -10 -20 -5 0 -10 -9
-10 -20 0 -11 -4 -20 -10 -20 -5 0 -10 -9 -10 -19 0 -11 -4 -23 -10 -26 -5 -3
-10 -17 -10 -31 0 -13 -4 -24 -10 -24 -5 0 -10 -9 -10 -19 0 -11 -4 -23 -10
-26 -5 -3 -10 -15 -10 -25 0 -11 -9 -35 -20 -55 -11 -20 -20 -41 -20 -48 0
-18 -24 -67 -32 -67 -5 0 -8 -9 -8 -19 0 -11 -4 -23 -10 -26 -5 -3 -10 -15
-10 -25 0 -11 -9 -35 -20 -55 -11 -20 -20 -44 -20 -55 0 -11 -4 -20 -10 -20
-5 0 -10 -7 -10 -15 0 -8 -9 -30 -20 -50 -11 -20 -20 -44 -20 -55 0 -11 -4
-20 -10 -20 -5 0 -10 -9 -10 -19 0 -11 -4 -23 -10 -26 -5 -3 -10 -17 -10 -31
0 -13 -4 -24 -10 -24 -5 0 -10 -7 -10 -15 0 -8 -9 -30 -20 -50 -11 -20 -20
-42 -20 -50 0 -8 -9 -30 -20 -50 -11 -20 -20 -44 -20 -55 0 -11 -4 -20 -10
-20 -5 0 -10 -9 -10 -20 0 -11 -4 -20 -10 -20 -5 0 -10 -9 -10 -19 0 -11 -4
-23 -10 -26 -5 -3 -10 -15 -10 -25 0 -11 -9 -35 -20 -55 -11 -20 -20 -41 -20
-48 0 -18 -24 -67 -32 -67 -5 0 -8 -9 -8 -19 0 -11 -4 -23 -10 -26 -5 -3 -10
-15 -10 -25 0 -11 -9 -35 -20 -55 -11 -20 -20 -44 -20 -55 0 -11 -4 -20 -10
-20 -5 0 -10 -7 -10 -15 0 -8 -9 -30 -20 -50 -11 -20 -20 -42 -20 -50 0 -8 -9
-30 -20 -50 -11 -20 -20 -44 -20 -55 0 -11 -4 -20 -10 -20 -5 0 -10 -7 -10
-15 0 -8 -9 -30 -20 -50 -11 -20 -20 -42 -20 -50 0 -8 -9 -30 -20 -50 -11 -20
-20 -44 -20 -55 0 -11 -4 -20 -10 -20 -5 0 -10 -7 -10 -15 0 -8 -9 -30 -20
-50 -11 -20 -20 -42 -20 -50 0 -8 -9 -30 -20 -50 -11 -20 -20 -42 -20 -50 0
-8 -9 -30 -20 -50 -11 -20 -20 -44 -20 -55 0 -11 -4 -20 -10 -20 -5 0 -10 -9
-10 -20 0 -11 -4 -20 -10 -20 -5 0 -10 -9 -10 -19 0 -11 -4 -23 -10 -26 -5 -3
-10 -15 -10 -25 0 -11 -9 -35 -20 -55 -11 -20 -20 -42 -20 -50 0 -8 -9 -30
-20 -50 -11 -20 -20 -42 -20 -49 0 -8 -13 -40 -30 -71 -16 -31 -30 -63 -30
-71 0 -7 -9 -29 -20 -49 -11 -20 -20 -42 -20 -50 0 -8 -9 -30 -20 -50 -11 -20
-20 -42 -20 -49 0 -7 -18 -48 -40 -91 -22 -43 -40 -83 -40 -89 0 -18 -24 -66
-32 -66 -5 0 -8 -9 -8 -19 0 -11 -4 -23 -10 -26 -5 -3 -10 -14 -10 -24 0 -20
-30 -85 -36 -78 -4 4 21 79 55 165 11 28 19 52 17 52 -6 0 -36 -61 -36 -72 0
-4 -8 -27 -19 -51 -27 -60 -38 -94 -56 -163 -18 -75 -19 -105 -2 -100 6 3 28
7 47 10 l35 5 -35 -19 c-19 -10 -30 -19 -25 -19 16 0 143 45 157 55 21 16 113
50 265 99 77 25 163 57 190 71 91 49 118 62 165 83 26 12 52 21 58 21 6 0 18
4 28 10 9 5 64 26 122 45 146 48 179 60 186 68 4 4 15 7 25 7 9 0 19 5 21 10
2 6 27 13 55 17 30 3 59 13 68 23 14 16 13 18 -20 23 -28 5 -66 -7 -202 -64
-91 -38 -168 -67 -170 -65 -5 5 56 36 71 36 6 0 38 14 71 30 33 17 65 30 71
30 7 0 38 14 69 30 31 17 64 30 72 30 8 0 40 14 70 30 30 17 61 30 68 30 8 0
30 9 50 20 20 11 42 20 49 20 8 0 40 14 71 30 31 17 65 30 75 30 11 0 22 5 25
10 3 6 15 10 26 10 10 0 19 5 19 10 0 6 9 10 20 10 11 0 35 9 55 20 20 11 44
20 55 20 10 0 22 5 25 10 3 6 15 10 26 10 10 0 19 3 19 8 0 10 50 32 71 32 10
0 21 5 24 10 3 6 15 10 26 10 10 0 19 5 19 10 0 6 11 10 24 10 14 0 28 5 31
10 3 6 15 10 26 10 10 0 19 5 19 10 0 6 9 10 20 10 11 0 35 9 55 20 20 11 42
20 50 20 8 0 30 9 50 20 20 11 42 20 50 20 8 0 15 5 15 10 0 6 9 10 20 10 11
0 35 9 55 20 20 11 42 20 50 20 8 0 30 9 50 20 20 11 42 20 50 20 8 0 15 5 15
10 0 6 11 10 24 10 14 0 28 5 31 10 3 6 15 10 26 10 10 0 19 5 19 10 0 6 11
10 24 10 14 0 28 5 31 10 3 6 15 10 26 10 10 0 19 3 19 8 0 8 49 32 67 32 7 0
13 5 13 10 0 6 9 10 20 10 11 0 20 5 20 10 0 6 11 10 24 10 14 0 28 5 31 10 3
6 15 10 26 10 10 0 19 5 19 10 0 6 11 10 24 10 14 0 28 5 31 10 3 6 15 10 26
10 10 0 19 5 19 10 0 6 11 10 24 10 14 0 28 5 31 10 3 6 15 10 26 10 10 0 19
5 19 10 0 6 9 10 20 10 11 0 20 5 20 10 0 6 11 10 24 10 14 0 28 5 31 10 3 6
15 10 26 10 10 0 19 5 19 10 0 6 11 10 24 10 14 0 28 5 31 10 3 6 15 10 26 10
10 0 19 5 19 10 0 6 9 10 20 10 11 0 20 5 20 10 0 6 11 10 24 10 14 0 28 5 31
10 3 6 15 10 26 10 10 0 19 5 19 10 0 6 11 10 24 10 14 0 28 5 31 10 3 6 16
10 28 10 12 0 37 9 55 20 18 11 41 20 52 20 10 0 22 5 25 10 3 6 15 10 26 10
10 0 19 5 19 10 0 6 11 10 24 10 14 0 28 5 31 10 3 6 15 10 26 10 10 0 19 3
19 8 0 8 49 32 67 32 7 0 28 9 48 20 20 11 44 20 55 20 11 0 35 13 53 30 19
16 36 28 38 25 2 -2 38 30 79 70 l74 75 -29 30 c-16 17 -81 62 -145 102 -943
584 -1675 1315 -2219 2215 -59 97 -106 163 -129 181 -56 43 -61 45 -68 25z"/>
<path d="M9718 8227 c-38 -30 -33 -80 23 -204 10 -24 19 -47 19 -51 0 -12 30
-72 36 -72 3 0 2 9 -1 20 -3 11 -4 20 -2 20 7 0 47 -84 47 -98 0 -7 5 -12 10
-12 6 0 10 -9 10 -19 0 -10 14 -45 30 -76 17 -31 30 -63 30 -71 0 -7 9 -29 20
-49 11 -20 20 -44 20 -55 0 -10 5 -22 10 -25 6 -3 10 -15 10 -26 0 -10 5 -19
10 -19 6 0 10 -9 10 -19 0 -11 6 -21 13 -24 9 -3 9 -8 1 -16 -8 -9 -23 17 -59
104 -26 63 -50 114 -52 111 -4 -3 5 -26 38 -103 11 -24 19 -47 19 -51 0 -5 11
-31 25 -58 14 -27 25 -53 25 -57 0 -5 11 -33 25 -63 14 -30 25 -58 25 -63 0
-13 32 -73 36 -68 2 2 -3 20 -11 40 -8 21 -11 37 -6 37 12 0 34 -44 52 -103 7
-26 17 -47 21 -47 4 0 8 -9 8 -19 0 -10 14 -45 30 -76 17 -31 30 -63 30 -71 0
-7 9 -29 20 -49 11 -20 20 -42 20 -50 0 -8 9 -30 20 -50 11 -20 20 -42 20 -50
0 -8 5 -15 10 -15 6 0 10 -11 10 -24 0 -14 5 -28 10 -31 6 -3 10 -15 10 -26 0
-10 5 -19 10 -19 6 0 10 -11 10 -24 0 -14 5 -28 10 -31 6 -3 10 -15 10 -26 0
-10 5 -19 10 -19 6 0 10 -9 10 -20 0 -11 5 -20 10 -20 6 0 10 -9 10 -19 0 -10
14 -45 30 -76 17 -31 30 -63 30 -71 0 -7 9 -29 20 -49 11 -20 20 -42 20 -49 0
-8 14 -40 30 -71 17 -31 30 -63 30 -70 0 -7 14 -39 30 -70 17 -31 30 -63 30
-71 0 -7 9 -29 20 -49 11 -20 20 -44 20 -55 0 -10 5 -22 10 -25 6 -3 10 -15
10 -26 0 -10 5 -19 10 -19 6 0 10 -8 10 -18 0 -10 4 -22 9 -28 4 -5 11 -25 14
-44 l7 -35 -16 25 c-10 17 -13 19 -9 5 4 -11 10 -29 13 -40 2 -11 8 -24 12
-30 4 -5 13 -28 20 -50 7 -22 16 -44 20 -50 4 -5 19 -41 33 -80 14 -38 46
-114 71 -167 25 -53 46 -101 46 -106 0 -19 30 -67 42 -67 6 0 13 -7 15 -15 4
-13 3 -13 -6 0 -24 34 -1 -44 32 -109 9 -19 17 -38 17 -42 0 -5 11 -33 25 -63
14 -30 25 -58 25 -61 0 -4 6 -21 14 -38 48 -112 69 -163 85 -209 25 -70 102
-231 108 -225 2 3 0 14 -6 25 -6 12 -11 27 -11 34 1 15 35 -56 44 -92 l7 -25
-15 25 c-29 47 -19 13 25 -87 11 -24 19 -47 19 -51 0 -14 32 -74 36 -69 2 2
-3 20 -11 40 -11 27 -12 35 -3 32 15 -6 38 -52 38 -76 0 -10 5 -21 10 -24 6
-3 10 -21 10 -38 l-1 -32 -14 38 c-7 21 -17 42 -21 45 -4 4 -4 -2 0 -13 5 -11
13 -35 18 -53 5 -19 12 -31 15 -28 9 9 43 -46 36 -57 -3 -5 -1 -12 5 -16 8 -4
8 -20 1 -51 -6 -25 -8 -53 -5 -63 2 -10 -2 -30 -10 -45 -34 -66 -3 -73 95 -22
105 55 144 96 236 246 154 250 462 680 665 924 313 378 789 778 1415 1188 121
80 230 154 242 165 25 22 19 33 -32 60 -52 27 -72 53 -79 103 -3 26 -14 57
-24 68 -16 20 -16 20 2 6 16 -13 19 -13 15 -1 -6 16 -12 20 -79 50 -90 39
-170 71 -180 71 -6 0 -30 8 -53 19 -57 25 -97 36 -77 21 12 -9 10 -10 -10 -4
-14 3 -32 11 -40 16 -11 6 -9 7 8 3 35 -10 26 2 -15 21 -21 9 -56 25 -78 35
-53 24 -213 90 -355 146 -63 25 -139 56 -168 69 -133 60 -179 76 -223 77 -26
1 -51 5 -54 9 -4 4 4 4 17 1 35 -9 13 9 -30 24 -45 15 -62 16 -42 2 13 -9 13
-10 0 -6 -8 2 -15 9 -15 15 0 12 -48 42 -66 42 -5 0 -28 8 -52 19 -78 34 -100
42 -104 37 -2 -2 5 -7 16 -11 12 -3 21 -11 21 -16 0 -5 -7 -6 -17 0 -10 5 -42
19 -71 32 -29 13 -55 27 -58 31 -3 4 16 -1 42 -12 26 -11 49 -19 51 -16 3 2
-13 12 -34 21 -88 38 -146 71 -161 93 -20 31 -56 48 -127 61 -60 11 -126 34
-220 77 -27 12 -85 32 -129 44 -43 12 -94 30 -113 41 -18 10 -38 19 -43 19 -6
0 -29 8 -53 19 -101 44 -133 53 -87 25 14 -8 18 -13 9 -10 -10 2 -37 10 -60
17 -24 7 -59 21 -77 31 -18 10 -38 18 -45 18 -18 0 -67 24 -67 33 0 4 -9 7
-19 7 -11 0 -23 5 -26 10 -3 6 -15 10 -25 10 -11 0 -35 9 -55 20 -20 11 -42
20 -49 20 -8 0 -40 14 -71 30 -31 17 -63 30 -70 30 -7 0 -39 14 -70 30 -31 17
-66 30 -76 30 -10 0 -19 4 -19 9 0 5 -10 11 -22 14 -12 4 -19 9 -16 12 3 4 50
-12 104 -34 53 -23 99 -39 101 -37 5 5 -56 36 -71 36 -6 0 -38 14 -71 30 -33
17 -63 30 -68 30 -4 0 -27 9 -49 20 -23 11 -46 20 -51 20 -5 0 -41 16 -78 35
-38 19 -75 35 -82 35 -7 0 -23 9 -36 21 -12 12 -50 28 -84 35 -33 8 -66 18
-71 23 -21 16 -143 51 -158 46 -9 -4 -19 -2 -23 4 -4 7 0 8 11 4 11 -4 15 -2
11 4 -4 6 -19 14 -34 18 -15 3 -46 15 -70 26 -23 10 -47 19 -52 19 -6 0 -11 4
-11 8 0 12 -62 32 -96 32 -16 0 -37 -6 -46 -13z"/>
<path d="M8963 8156 c-15 -5 -37 -17 -49 -27 -11 -11 -24 -19 -30 -19 -5 0 -2
5 6 10 8 5 11 10 5 10 -5 0 -17 -5 -25 -10 -10 -6 -11 -10 -2 -10 6 0 12 -5
12 -11 0 -6 -7 -8 -15 -5 -9 3 -18 -1 -21 -9 -4 -8 -17 -15 -29 -15 -13 0 -27
-4 -30 -10 -3 -5 -15 -10 -26 -10 -10 0 -19 -4 -19 -10 0 -5 -9 -10 -20 -10
-11 0 -20 -4 -20 -10 0 -5 -10 -10 -23 -10 -13 0 -29 -6 -36 -12 -11 -10 -14
-10 -18 0 -5 13 -24 17 -22 5 4 -23 -3 -35 -15 -30 -8 3 -22 -1 -33 -8 -10 -8
-26 -15 -35 -15 -10 0 -18 -4 -18 -10 0 -5 -10 -10 -23 -10 -13 0 -29 -6 -36
-12 -11 -10 -14 -10 -18 0 -6 17 -23 15 -71 -8 -22 -11 -45 -20 -50 -20 -5 0
-23 -7 -41 -16 -55 -28 -26 -26 40 2 107 44 109 45 102 29 -3 -8 -13 -15 -23
-15 -10 0 -44 -13 -75 -30 -31 -16 -65 -30 -75 -30 -11 0 -22 -4 -25 -10 -3
-5 -15 -10 -26 -10 -10 0 -19 -4 -19 -10 0 -5 -9 -10 -20 -10 -11 0 -35 -9
-55 -20 -20 -11 -44 -20 -55 -20 -10 0 -22 -4 -25 -10 -3 -5 -15 -10 -26 -10
-10 0 -19 -4 -19 -10 0 -5 -10 -10 -23 -10 -13 0 -29 -6 -35 -12 -10 -10 -15
-10 -21 1 -7 10 -13 11 -27 1 -15 -9 -16 -10 -2 -6 12 3 15 1 11 -10 -3 -7
-14 -14 -24 -14 -10 0 -19 -4 -19 -10 0 -5 -10 -10 -23 -10 -13 0 -29 -6 -36
-12 -11 -10 -14 -10 -18 0 -5 13 -24 17 -22 5 4 -24 -4 -33 -25 -33 -14 0 -28
-4 -31 -10 -3 -5 -15 -10 -26 -10 -10 0 -19 -4 -19 -10 0 -5 -11 -10 -24 -10
-14 0 -28 -4 -31 -10 -3 -5 -15 -10 -26 -10 -10 0 -19 -4 -19 -10 0 -5 -11
-10 -24 -10 -14 0 -28 -4 -31 -10 -3 -5 -15 -10 -26 -10 -10 0 -19 -4 -19 -10
0 -5 -9 -10 -20 -10 -11 0 -20 -4 -20 -10 0 -5 -11 -10 -24 -10 -14 0 -28 -4
-31 -10 -3 -5 -15 -10 -26 -10 -10 0 -19 -5 -19 -11 0 -6 -6 -9 -14 -6 -8 3
-22 -1 -33 -8 -10 -8 -26 -15 -35 -15 -10 0 -18 -4 -18 -10 0 -5 -11 -10 -24
-10 -14 0 -28 -4 -31 -10 -3 -5 -15 -10 -26 -10 -10 0 -19 -5 -19 -11 0 -6 -7
-8 -15 -5 -9 3 -18 -1 -21 -9 -4 -8 -17 -15 -29 -15 -13 0 -27 -4 -30 -10 -3
-5 -15 -10 -26 -10 -10 0 -19 -5 -19 -11 0 -6 -6 -9 -14 -6 -8 3 -22 -1 -33
-8 -10 -8 -26 -15 -35 -15 -10 0 -18 -4 -18 -10 0 -5 -11 -10 -24 -10 -14 0
-28 -4 -31 -10 -3 -5 -15 -10 -26 -10 -10 0 -19 -4 -19 -10 0 -5 -9 -10 -20
-10 -11 0 -20 -4 -20 -10 0 -5 -11 -10 -24 -10 -14 0 -28 -4 -31 -10 -3 -5
-15 -10 -26 -10 -10 0 -19 -4 -19 -10 0 -5 -9 -10 -19 -10 -10 0 -45 -13 -76
-30 -31 -16 -65 -30 -75 -30 -11 0 -22 -4 -25 -10 -3 -5 -15 -10 -26 -10 -10
0 -19 -4 -19 -10 0 -5 -9 -10 -20 -10 -11 0 -20 -4 -20 -10 0 -5 -11 -10 -24
-10 -14 0 -28 -4 -31 -10 -3 -5 -15 -10 -26 -10 -10 0 -19 -4 -19 -10 0 -5
-11 -10 -24 -10 -14 0 -28 -4 -31 -10 -3 -5 -16 -10 -28 -10 -18 0 -19 2 -7
10 25 16 -3 11 -30 -6 -23 -14 -23 -14 -2 -9 13 4 22 2 22 -4 0 -6 -9 -11 -20
-11 -11 0 -20 -4 -20 -10 0 -5 -11 -10 -24 -10 -14 0 -28 -4 -31 -10 -3 -5
-15 -10 -26 -10 -10 0 -19 -5 -19 -11 0 -6 -7 -8 -15 -5 -9 3 -18 -1 -21 -9
-4 -9 -19 -15 -35 -15 -16 0 -29 -5 -29 -11 0 -6 -7 -8 -15 -5 -9 3 -18 -1
-22 -10 -3 -8 -12 -13 -20 -10 -7 3 -16 0 -19 -8 -3 -7 -17 -13 -31 -13 -14 0
-29 -6 -33 -13 -4 -7 -13 -9 -19 -6 -6 4 -14 0 -17 -9 -4 -9 -12 -14 -19 -11
-7 2 -21 -2 -32 -9 -10 -8 -26 -15 -35 -15 -10 0 -18 -4 -18 -10 0 -5 -9 -10
-20 -10 -11 0 -20 -4 -20 -10 0 -5 -11 -10 -24 -10 -14 0 -28 -4 -31 -10 -3
-5 -15 -10 -26 -10 -10 0 -19 -4 -19 -10 0 -5 -9 -10 -20 -10 -11 0 -20 -4
-20 -10 0 -5 -11 -10 -24 -10 -14 0 -28 -4 -31 -10 -3 -5 -15 -10 -26 -10 -10
0 -19 -5 -19 -11 0 -6 -6 -9 -14 -6 -8 3 -22 -1 -33 -8 -10 -8 -26 -15 -35
-15 -10 0 -18 -5 -18 -11 0 -6 -7 -8 -15 -5 -9 3 -18 -1 -21 -9 -4 -8 -17 -15
-29 -15 -13 0 -27 -4 -30 -10 -3 -5 -15 -10 -26 -10 -10 0 -19 -4 -19 -10 0
-5 -11 -10 -24 -10 -14 0 -28 -4 -31 -10 -3 -5 -14 -10 -24 -10 -9 0 -60 -43
-112 -95 -55 -56 -102 -95 -113 -95 -43 0 57 -76 418 -317 545 -363 705 -490
1006 -799 293 -301 547 -624 871 -1109 136 -205 194 -275 263 -320 27 -18 27
-18 66 20 21 20 40 47 43 59 3 11 9 32 13 45 5 16 4 22 -4 17 -13 -8 2 40 29
97 11 22 19 44 19 51 0 18 24 66 33 66 4 0 7 9 7 19 0 11 5 23 10 26 6 3 10
14 10 24 0 21 22 71 33 71 4 0 7 9 7 19 0 11 5 23 10 26 6 3 10 14 10 24 0 21
22 71 33 71 4 0 7 9 7 19 0 11 5 23 10 26 6 3 10 14 10 25 0 10 14 44 30 75
17 31 30 63 30 70 0 7 14 39 30 70 17 31 30 63 30 71 0 7 9 29 20 49 11 20 20
44 20 55 0 11 5 20 10 20 6 0 10 9 10 19 0 11 5 23 10 26 6 3 10 14 10 25 0
10 14 44 30 75 17 31 30 66 30 76 0 10 5 19 10 19 6 0 10 9 10 19 0 11 5 23
10 26 6 3 10 17 10 31 0 13 5 24 10 24 6 0 10 9 10 20 0 11 5 20 10 20 6 0 10
9 10 19 0 11 5 23 10 26 6 3 10 15 10 25 0 11 9 35 20 55 11 20 20 42 20 49 0
8 14 40 30 71 17 31 30 63 30 71 0 7 9 29 20 49 11 20 20 41 20 48 0 18 24 67
33 67 4 0 7 9 7 19 0 11 5 23 10 26 6 3 10 17 10 31 0 13 5 24 10 24 6 0 10 9
10 19 0 11 5 23 10 26 6 3 10 15 10 25 0 11 9 35 20 55 11 20 20 44 20 55 0
11 5 20 10 20 6 0 10 9 10 20 0 11 5 20 10 20 6 0 10 9 10 19 0 11 5 23 10 26
6 3 10 17 10 31 0 13 5 24 10 24 6 0 10 9 10 19 0 11 5 23 10 26 6 3 10 14 10
24 0 21 22 71 33 71 4 0 7 9 7 19 0 11 5 23 10 26 6 3 10 15 10 25 0 11 9 35
20 55 11 20 20 42 20 50 0 8 9 30 20 50 11 20 20 44 20 55 0 11 5 20 10 20 6
0 10 7 10 15 0 8 9 30 20 50 11 20 20 42 20 50 0 8 9 30 20 50 11 20 20 44 20
55 0 11 5 20 10 20 6 0 10 7 10 15 0 8 9 30 20 50 11 20 20 44 20 55 0 11 5
20 10 20 6 0 10 9 10 19 0 11 5 23 10 26 6 3 10 17 10 31 0 13 5 24 10 24 6 0
10 9 10 19 0 11 5 23 10 26 6 3 10 14 10 24 0 21 22 71 33 71 4 0 7 9 7 19 0
11 5 23 10 26 6 3 10 15 10 25 0 11 9 35 20 55 11 20 20 44 20 55 0 11 5 20
10 20 6 0 10 7 10 15 0 8 9 30 20 50 11 20 20 42 20 50 0 8 9 30 20 50 11 20
20 42 20 49 0 8 14 40 30 71 17 31 30 62 30 69 0 18 24 66 33 66 11 0 9 -7
-34 -107 -22 -53 -38 -97 -36 -100 5 -5 37 55 37 69 0 17 61 148 90 194 11 17
23 52 26 77 8 60 -12 104 -69 151 -45 37 -81 42 -144 22z"/>
<path d="M4950 3005 c-69 -8 -163 -14 -210 -13 -141 2 -161 -16 -290 -262
-122 -234 -434 -799 -441 -800 -3 0 -36 46 -73 103 -67 101 -171 303 -282 552
-109 243 -162 317 -258 361 -74 34 -159 43 -436 45 -275 3 -280 2 -306 -66
-13 -35 -14 -136 -12 -777 3 -730 3 -737 24 -765 29 -39 73 -51 216 -59 140
-7 191 2 229 42 l24 26 5 541 c5 518 6 542 23 542 19 0 198 -307 475 -815 129
-238 176 -296 251 -319 166 -49 287 -8 375 127 24 37 160 278 301 537 142 259
261 474 265 478 4 5 10 -22 14 -60 23 -242 28 -355 27 -657 0 -375 2 -390 60
-425 29 -18 50 -20 183 -19 83 0 161 4 173 9 12 4 30 20 40 36 17 25 18 58 15
493 -3 324 0 515 9 630 8 91 14 208 13 260 0 236 -90 291 -414 255z"/>
<path d="M399 3000 c-53 -4 -105 -13 -117 -19 -42 -23 -45 -63 -38 -631 6
-598 11 -645 71 -766 58 -119 181 -212 320 -243 163 -37 1139 -34 1280 4 185
49 296 160 352 352 15 51 17 129 21 628 4 601 2 633 -41 657 -34 19 -332 21
-369 2 -61 -32 -61 -30 -62 -570 l-1 -490 -30 -59 c-25 -50 -39 -63 -84 -87
l-53 -28 -362 0 c-394 0 -434 5 -489 55 -34 33 -63 88 -72 142 -3 23 -8 246
-9 495 -3 490 -5 507 -58 542 -30 20 -136 26 -259 16z"/>
<path d="M6044 2993 c-291 -3 -302 -4 -320 -24 -18 -20 -19 -50 -19 -805 l0
-784 26 -26 27 -26 653 -2 c880 -3 1071 8 1210 70 68 31 131 92 158 155 41 92
51 293 20 402 -21 75 -114 149 -234 187 -41 13 -68 30 -48 30 6 0 45 23 87 51
114 76 156 162 156 325 0 166 -78 294 -226 368 -62 30 -106 42 -219 55 -243
30 -349 32 -1271 24z m1128 -415 c78 -23 110 -103 73 -182 -31 -65 -22 -64
-530 -67 -253 -1 -468 2 -478 6 -27 11 -37 47 -37 131 0 66 3 78 25 99 l24 25
442 0 c310 0 453 -4 481 -12z m85 -616 c81 -57 63 -186 -30 -221 -19 -7 -189
-11 -497 -11 -557 0 -513 -11 -519 124 -3 80 -2 86 23 111 l26 26 482 -3 483
-3 32 -23z"/>
<path d="M8226 2989 c-21 -3 -47 -16 -59 -28 l-22 -22 -3 -778 c-3 -906 -14
-820 109 -832 201 -20 334 -5 359 41 6 11 8 84 4 182 -6 182 -1 206 52 223 19
6 187 10 427 9 l397 -1 47 -24 c75 -38 94 -85 92 -224 -3 -135 10 -167 77
-197 40 -17 63 -19 214 -16 198 4 203 6 226 104 27 117 12 239 -43 354 -26 53
-113 151 -162 181 l-24 15 69 70 c129 131 180 266 171 459 -12 281 -127 418
-395 469 -63 13 -207 16 -788 18 -391 2 -728 0 -748 -3z m1362 -431 c39 -19
70 -72 78 -134 14 -118 -12 -195 -79 -232 -29 -15 -77 -17 -474 -20 -481 -3
-495 -2 -509 52 -3 13 -4 85 -2 160 3 122 5 138 24 157 12 11 36 24 53 28 18
3 223 5 457 4 319 -2 432 -6 452 -15z"/>
<path d="M10566 2985 c-20 -6 -37 -22 -48 -45 -17 -32 -18 -91 -18 -776 0
-503 3 -751 11 -772 6 -17 23 -39 37 -49 26 -17 72 -18 880 -17 l853 0 24 25
c24 23 26 33 30 154 2 75 0 144 -6 163 -21 66 -5 65 -681 66 l-608 1 -26 27
c-24 23 -28 37 -32 105 -4 74 -3 81 21 109 l25 29 564 0 c435 1 568 4 586 14
33 18 42 50 42 152 0 95 -14 141 -47 154 -10 3 -264 6 -565 5 -591 -1 -607 0
-624 52 -12 37 -6 136 11 168 8 16 25 35 38 42 16 9 168 12 614 12 l592 1 23
23 c21 20 24 35 29 145 3 67 2 137 -3 155 -19 68 30 64 -875 66 -520 1 -827
-3 -847 -9z"/>
<path d="M12720 2990 c-74 -18 -70 32 -72 -769 -2 -394 -2 -741 -1 -771 3 -70
26 -102 84 -115 28 -7 313 -10 766 -10 674 0 723 1 740 17 15 15 18 42 21 175
2 96 0 169 -7 185 -23 61 -13 60 -553 64 l-492 3 -25 26 -26 25 -5 538 c-5
489 -7 540 -23 569 -30 57 -64 67 -227 70 -80 1 -161 -2 -180 -7z"/>
<path d="M14570 2990 c-74 -18 -70 26 -72 -719 -2 -366 -3 -709 -3 -761 0
-108 14 -153 53 -169 19 -8 246 -11 774 -9 737 3 747 3 774 24 37 27 44 56 47
205 2 137 -6 168 -50 188 -16 8 -175 11 -509 11 -521 0 -537 1 -566 52 -10 18
-14 138 -18 553 -6 595 -5 591 -74 620 -39 17 -292 20 -356 5z"/>
<path d="M17403 2990 c-205 -5 -224 -7 -250 -26 -17 -13 -57 -77 -101 -160
-41 -76 -135 -247 -210 -379 -74 -132 -221 -400 -325 -595 -104 -195 -206
-388 -228 -428 l-39 -73 260 3 260 3 23 25 c13 14 32 47 42 73 27 74 73 128
140 162 l59 30 440 2 c249 1 457 -3 478 -8 49 -12 90 -61 122 -146 29 -76 74
-128 123 -142 16 -5 119 -6 227 -3 233 6 248 11 226 78 -7 21 -78 156 -158
299 -80 143 -261 474 -404 735 -166 305 -271 486 -293 507 -36 34 -91 54 -140
51 -16 -1 -130 -5 -252 -8z m143 -515 c93 -162 244 -472 244 -500 0 -10 -592
-5 -611 5 -36 20 -17 87 57 207 8 12 38 66 68 120 29 54 62 114 73 133 11 19
35 63 53 98 40 75 35 77 116 -63z"/>
<path d="M13810 961 c-179 -11 -240 -33 -293 -103 -42 -54 -57 -134 -57 -293
0 -268 24 -372 98 -421 58 -40 141 -46 502 -42 380 5 415 11 481 77 55 54 62
89 66 333 4 186 2 225 -12 269 -32 95 -99 148 -211 168 -80 14 -421 21 -574
12z m522 -210 c83 -76 98 -112 98 -237 0 -91 -3 -111 -24 -152 -27 -53 -44
-71 -99 -101 -35 -20 -53 -21 -252 -21 -132 0 -216 4 -220 10 -3 6 -22 10 -41
10 -29 0 -45 9 -90 54 l-54 55 0 143 0 144 43 41 c52 51 109 83 147 83 16 0
32 5 35 10 4 6 83 10 205 10 l198 0 54 -49z"/>
<path d="M3310 954 c-14 -2 -59 -9 -100 -15 -107 -16 -174 -44 -209 -86 -49
-59 -56 -104 -56 -353 0 -222 0 -226 26 -281 29 -62 67 -94 137 -116 60 -20
559 -30 687 -14 160 19 220 67 219 174 -1 80 -25 111 -86 115 -41 3 -50 -1
-94 -39 -93 -81 -109 -84 -359 -81 -251 4 -265 7 -302 80 -15 31 -23 70 -28
146 -10 139 -1 182 44 227 50 50 183 84 331 84 114 0 164 -13 252 -67 60 -37
140 -54 193 -42 40 10 40 10 43 62 6 110 -44 153 -217 184 -101 18 -420 33
-481 22z"/>
<path d="M4595 953 c-111 -13 -223 -37 -254 -53 -86 -43 -133 -130 -162 -296
-17 -99 -8 -249 20 -305 47 -97 142 -161 291 -196 62 -15 123 -18 360 -18 267
0 289 1 356 22 56 18 80 32 107 62 61 67 72 124 72 361 0 205 0 205 -28 263
-46 93 -107 124 -298 152 -97 14 -378 19 -464 8z m388 -188 c75 -19 130 -55
164 -107 64 -96 27 -335 -59 -388 -31 -18 -50 -20 -274 -20 -233 0 -242 1
-285 23 -32 17 -50 37 -69 72 -22 45 -24 58 -23 168 2 102 5 125 25 165 44 88
78 99 313 101 105 1 168 -4 208 -14z"/>
<path d="M8402 945 c-191 -22 -261 -64 -299 -182 -21 -65 -30 -371 -13 -456
23 -124 75 -176 197 -202 160 -34 664 -28 790 10 146 44 184 153 164 474 -13
217 -32 265 -122 311 -99 51 -463 74 -717 45z m483 -155 c3 -5 16 -10 28 -10
14 0 40 -18 67 -47 51 -54 70 -84 70 -111 0 -10 5 -23 11 -29 7 -7 12 -45 12
-90 -1 -71 -4 -85 -39 -152 -54 -103 -67 -109 -226 -110 -75 -1 -129 3 -133 9
-4 6 -55 10 -122 10 -108 0 -119 2 -179 31 -88 41 -104 76 -104 227 0 95 3
115 24 156 27 53 54 86 70 86 6 0 22 9 36 20 23 18 42 20 252 20 141 0 229 -4
233 -10z"/>
<path d="M11235 931 c-83 -22 -120 -58 -198 -191 -130 -224 -348 -632 -342
-638 4 -4 51 -7 105 -7 96 0 100 1 130 30 17 16 36 46 42 67 6 21 18 44 26 51
11 9 87 12 299 11 317 -1 298 3 338 -76 12 -24 37 -54 56 -67 31 -21 41 -23
123 -17 49 3 91 8 94 11 7 7 -343 649 -398 730 -52 76 -181 121 -275 96z m159
-266 c8 -17 26 -47 40 -68 14 -21 26 -44 26 -52 0 -8 9 -30 19 -49 11 -18 23
-54 26 -79 l7 -45 -48 -8 c-26 -4 -106 -4 -177 0 -151 7 -187 20 -187 66 0 50
113 267 178 343 15 17 18 15 59 -30 23 -26 49 -62 57 -78z"/>
<path d="M14935 924 c-89 -27 -85 -7 -85 -410 0 -242 4 -361 11 -378 19 -42
93 -58 159 -35 54 19 62 55 54 233 -4 83 -3 204 1 269 7 114 8 118 29 112 11
-4 32 -15 46 -24 29 -21 180 -205 336 -411 119 -157 151 -185 220 -196 56 -8
254 21 273 41 8 8 14 29 14 47 0 18 -1 185 -2 371 l-1 337 -25 26 c-24 24 -32
26 -82 22 -95 -8 -93 -1 -93 -338 l0 -289 -22 -7 c-18 -5 -27 0 -48 27 -57 76
-188 240 -235 296 -27 33 -77 94 -110 137 -68 87 -141 148 -204 171 -55 19
-170 18 -236 -1z"/>
<path d="M5642 923 c-51 -10 -52 -23 -51 -399 0 -195 5 -363 10 -381 15 -47
94 -69 153 -42 29 14 38 42 30 101 -4 29 -1 56 9 80 23 55 54 60 302 56 178
-3 216 -6 247 -21 46 -23 68 -68 68 -140 0 -75 14 -87 96 -87 52 0 68 4 85 21
19 19 21 30 17 110 -5 105 -19 132 -92 168 l-48 24 34 18 c94 48 138 148 119
266 -24 153 -57 202 -149 222 -51 11 -776 14 -830 4z m485 -153 c219 0 222 0
250 -24 24 -21 28 -32 31 -93 3 -51 0 -78 -12 -101 -30 -58 -51 -62 -299 -62
-231 0 -279 6 -297 40 -16 31 -12 192 5 217 16 23 47 33 80 27 11 -2 120 -4
242 -4z"/>
<path d="M7194 920 c-102 -15 -155 -40 -214 -99 -89 -90 -93 -110 -98 -418 -2
-176 0 -268 7 -282 21 -39 132 -40 172 0 15 15 19 33 19 89 0 62 3 74 25 95
l24 25 249 0 c137 0 275 5 307 11 153 28 209 105 209 284 -1 188 -66 271 -231
295 -78 11 -393 11 -469 0z m408 -162 c35 -13 55 -44 63 -100 10 -66 -9 -125
-48 -148 -29 -18 -51 -20 -267 -20 -129 0 -240 4 -246 8 -29 19 -37 56 -30
144 8 103 12 117 38 127 29 10 459 1 490 -11z"/>
<path d="M9485 906 l-25 -25 3 -376 c4 -441 -5 -410 113 -410 90 0 94 4 94 97
0 142 18 151 305 146 197 -3 216 -5 241 -24 45 -33 63 -65 75 -129 17 -89 17
-90 92 -93 57 -2 69 0 87 18 20 20 22 31 18 115 -3 88 -5 96 -33 125 -17 18
-49 36 -72 43 -24 6 -43 14 -43 17 0 3 15 12 34 18 46 17 102 81 117 134 12
45 6 162 -12 249 -13 58 -49 94 -109 108 -27 6 -209 11 -453 11 l-408 0 -24
-24z m752 -156 c60 -36 84 -151 43 -203 -36 -45 -103 -57 -330 -57 -267 0
-282 8 -281 142 1 73 6 104 23 126 8 9 73 12 262 12 232 0 253 -2 283 -20z"/>
<path d="M11830 910 c-29 -29 -27 -84 5 -116 25 -25 28 -25 163 -23 147 3 178
-5 186 -44 8 -35 26 -392 26 -503 0 -114 4 -122 68 -131 95 -13 139 32 129
130 -3 29 -2 141 2 249 9 260 12 265 215 288 168 20 182 29 174 111 -5 59 -5
59 -500 59 -435 0 -449 -1 -468 -20z"/>
<path d="M13050 923 c-8 -3 -23 -12 -32 -21 -17 -14 -18 -45 -18 -389 l0 -374
26 -26 c23 -23 31 -25 81 -21 97 8 93 -10 93 420 l0 369 -25 24 c-18 19 -34
25 -67 24 -24 0 -50 -3 -58 -6z"/>
</g>
</svg>
