<?xml version="1.0" standalone="no"?>
<!DOCTYPE svg PUBLIC "-//W3C//DTD SVG 20010904//EN"
 "http://www.w3.org/TR/2001/REC-SVG-20010904/DTD/svg10.dtd">
<svg version="1.0" xmlns="http://www.w3.org/2000/svg"
 width="920.000000pt" height="256.000000pt" viewBox="0 0 920.000000 256.000000"
 preserveAspectRatio="xMidYMid meet">
<metadata>
Created by potrace 1.16, written by Peter Selinger 2001-2019
</metadata>
<g transform="translate(0.000000,256.000000) scale(0.100000,-0.100000)"
fill="#000000" stroke="none">
<path d="M7595 2533 c-16 -9 -36 -19 -44 -23 -8 -3 -44 -55 -80 -116 -129
-213 -233 -329 -429 -476 -52 -39 -98 -82 -104 -97 -6 -14 -15 -36 -21 -48 -7
-16 -4 -57 11 -150 50 -303 49 -433 -5 -721 -15 -76 -14 -86 1 -137 16 -50 24
-59 104 -118 205 -150 320 -278 457 -510 44 -74 64 -99 84 -104 14 -3 35 -12
46 -19 16 -10 33 -9 95 7 245 64 435 64 680 0 62 -16 79 -17 95 -7 11 7 32 16
47 19 20 5 39 29 79 94 138 232 254 364 449 511 87 65 97 76 113 124 18 51 18
56 -2 168 -52 293 -51 416 6 727 12 68 14 99 6 115 -6 13 -15 35 -21 49 -6 14
-58 63 -117 108 -202 157 -276 240 -417 470 -35 58 -70 108 -78 111 -8 4 -30
15 -47 24 -31 16 -38 16 -145 -8 -244 -54 -373 -54 -612 0 -128 28 -114 28
-151 7z m103 -378 c150 -405 288 -776 297 -797 4 -10 3 -18 -3 -18 -9 0 -927
421 -989 454 -24 12 -22 14 72 86 200 152 312 278 440 493 32 54 61 94 65 90
3 -4 56 -143 118 -308z m908 185 c129 -207 229 -317 421 -461 52 -39 92 -74
89 -77 -3 -2 -76 -37 -163 -77 -87 -40 -310 -143 -497 -229 -186 -86 -342
-155 -346 -154 -4 2 44 140 107 308 62 168 153 411 200 540 115 316 103 288
115 270 5 -8 38 -62 74 -120z m-611 -1137 c-7 -19 -65 -176 -275 -743 -73
-195 -136 -359 -141 -364 -5 -5 -16 5 -26 24 -10 18 -58 93 -107 168 -102 155
-207 265 -366 383 -54 41 -96 77 -92 81 9 8 994 466 1006 467 4 1 5 -7 1 -16z
m675 -243 c239 -110 438 -204 442 -208 4 -4 -27 -33 -70 -64 -105 -78 -217
-178 -275 -246 -46 -53 -180 -250 -220 -323 -10 -19 -21 -28 -26 -23 -5 5 -36
83 -69 174 -33 91 -124 335 -201 542 -78 207 -141 384 -141 392 0 12 13 9 63
-14 34 -15 258 -119 497 -230z"/>
<path d="M0 1693 c0 -310 16 -369 110 -416 42 -21 58 -22 260 -22 202 0 218 1
260 22 52 26 85 70 99 133 6 25 11 145 11 268 l0 222 -89 0 -90 0 -3 -220 c-4
-277 5 -263 -165 -268 -136 -4 -184 6 -201 43 -8 17 -12 97 -12 235 l0 210
-90 0 -90 0 0 -207z"/>
<path d="M860 1580 l0 -320 85 0 85 0 0 225 c0 124 3 225 8 224 4 0 57 -100
118 -222 l111 -222 69 -3 69 -3 115 228 115 228 3 -227 2 -228 85 0 85 0 0
320 0 320 -136 0 -135 0 -101 -207 -101 -207 -101 206 -101 207 -137 0 -138 1
0 -320z"/>
<path d="M1940 1581 l0 -321 315 0 c364 0 373 2 405 72 23 52 26 135 5 184
-10 24 -25 39 -51 50 l-38 16 32 20 c39 24 56 81 49 156 -7 63 -25 95 -70 119
-28 16 -68 18 -339 21 l-308 3 0 -320z m527 161 c24 -15 26 -59 4 -81 -20 -20
-32 -21 -191 -21 l-170 0 0 55 0 55 173 0 c94 0 177 -4 184 -8z m14 -242 c12
-7 19 -21 19 -40 0 -19 -7 -33 -19 -40 -12 -6 -93 -10 -195 -10 l-176 0 0 50
0 50 176 0 c102 0 183 -4 195 -10z"/>
<path d="M2792 1578 l3 -323 85 0 85 0 5 85 5 85 158 -1 c126 -1 161 -4 173
-16 9 -9 17 -43 21 -87 l6 -72 86 3 86 3 -3 89 c-2 97 -15 129 -58 148 -31 14
-30 19 9 43 45 28 60 80 54 182 -6 96 -26 139 -77 165 -31 16 -69 18 -338 18
l-302 0 2 -322z m521 153 c12 -9 17 -29 17 -67 0 -80 -10 -84 -202 -84 l-158
0 0 78 c0 43 2 81 4 83 3 3 77 5 164 4 120 0 163 -3 175 -14z"/>
<path d="M3630 1580 l0 -320 325 0 326 0 -3 73 -3 72 -232 3 -233 2 0 55 0 55
215 0 215 0 0 65 0 65 -215 0 -215 0 0 55 0 56 224 -3 225 -3 3 73 3 72 -317
0 -318 0 0 -320z"/>
<path d="M4390 1580 l0 -320 290 0 291 0 -3 78 -3 77 -202 3 -203 2 0 240 0
240 -85 0 -85 0 0 -320z"/>
<path d="M5045 1580 l0 -320 290 0 290 0 -3 80 -4 80 -199 0 -199 0 0 240 0
240 -87 0 -88 0 0 -320z"/>
<path d="M5828 1597 c-81 -166 -150 -310 -153 -319 -7 -16 2 -18 89 -18 l96 0
27 55 27 55 181 0 181 0 27 -55 27 -55 95 0 c52 0 95 2 95 3 0 2 -70 146 -155
320 l-155 317 -117 0 -118 -1 -147 -302z m377 -87 c-8 -13 -225 -13 -225 0 0
5 25 63 56 127 l56 118 59 -118 c33 -65 57 -122 54 -127z"/>
<path d="M2133 1085 c-17 -7 -36 -22 -42 -34 -14 -26 -14 -216 0 -243 18 -34
70 -48 181 -48 126 0 171 11 186 46 23 48 16 64 -26 64 -26 0 -41 -6 -50 -20
-11 -18 -23 -20 -106 -20 -68 0 -97 4 -105 14 -21 25 -25 108 -8 149 l16 37
95 0 c85 0 96 -2 106 -20 8 -14 21 -20 45 -20 31 0 35 3 35 26 0 38 -16 61
-51 73 -46 16 -237 13 -276 -4z"/>
<path d="M2604 1094 c-12 -3 -32 -16 -45 -30 -22 -24 -24 -34 -24 -135 0 -105
1 -109 27 -136 26 -26 34 -28 133 -31 135 -5 191 3 221 33 22 23 24 31 24 138
0 109 -1 114 -26 138 -24 23 -33 24 -157 26 -73 0 -142 -1 -153 -3z m249 -86
c16 -18 18 -36 15 -91 -2 -46 -9 -71 -18 -77 -8 -6 -59 -10 -112 -10 -121 0
-128 5 -128 99 0 98 17 109 160 104 54 -2 68 -6 83 -25z"/>
<path d="M3020 935 l0 -165 34 0 c34 0 35 1 38 43 l3 42 88 3 c100 3 113 -3
123 -54 6 -31 9 -34 40 -34 33 0 34 1 34 39 0 38 -14 63 -42 74 -9 4 -4 13 15
27 24 20 27 28 27 84 0 95 -4 97 -200 102 l-160 5 0 -166z m278 83 c7 -7 12
-26 12 -43 0 -49 -14 -55 -122 -55 l-98 0 0 55 0 55 98 0 c63 0 102 -4 110
-12z"/>
<path d="M3474 1091 c-2 -2 -4 -76 -4 -163 l0 -158 40 0 c40 0 40 0 40 39 l0
39 116 4 c113 3 116 4 140 31 20 23 24 39 24 90 0 76 -16 102 -70 117 -36 10
-276 10 -286 1z m264 -73 c7 -7 12 -29 12 -50 0 -47 -15 -55 -98 -52 -112 3
-102 -2 -102 59 l0 55 88 0 c55 0 92 -4 100 -12z"/>
<path d="M3953 1085 c-46 -20 -53 -42 -53 -157 0 -119 10 -141 68 -158 48 -13
226 -13 274 0 58 17 68 39 68 158 0 57 -5 112 -11 124 -19 36 -70 48 -196 48
-78 -1 -129 -6 -150 -15z m261 -71 c11 -11 16 -35 16 -80 0 -102 -2 -104 -124
-104 -72 0 -107 4 -114 13 -20 24 -25 110 -9 150 l16 37 100 0 c77 0 103 -4
115 -16z"/>
<path d="M4395 1092 c-3 -3 -5 -77 -5 -164 l0 -158 34 0 c34 0 35 1 38 43 l3
42 89 3 c100 3 126 -9 126 -60 0 -25 3 -28 35 -28 34 0 35 1 35 38 0 42 -7 56
-32 65 -25 9 -22 22 7 41 22 15 25 23 25 80 0 97 -7 101 -196 102 -85 0 -156
-2 -159 -4z m273 -74 c7 -7 12 -26 12 -43 0 -49 -14 -55 -122 -55 l-98 0 0 55
0 55 98 0 c63 0 102 -4 110 -12z"/>
<path d="M4978 1086 c-5 -6 -42 -80 -83 -163 l-74 -153 43 0 c40 0 45 3 55 30
l10 30 105 0 105 0 16 -30 c13 -26 21 -30 56 -30 22 0 39 4 37 8 -7 19 -151
307 -154 311 -9 10 -107 7 -116 -3z"/>
<path d="M5220 1063 l0 -33 65 0 65 0 0 -130 0 -130 40 0 40 0 0 130 0 129 68
3 c65 3 67 4 70 30 4 36 -8 39 -195 36 l-153 -3 0 -32z"/>
<path d="M5645 1092 c-3 -3 -5 -77 -5 -164 l0 -158 35 0 35 0 -2 162 -3 162
-27 1 c-15 1 -30 0 -33 -3z"/>
<path d="M5851 1089 c-44 -18 -50 -37 -51 -157 0 -107 1 -114 25 -137 23 -24
28 -25 175 -25 l152 0 29 29 c28 29 29 32 29 135 0 96 -2 107 -24 133 l-24 28
-144 2 c-78 1 -154 -2 -167 -8z m259 -69 c16 -16 20 -33 20 -89 0 -95 -7 -101
-124 -101 -123 0 -131 6 -131 100 0 98 15 110 131 110 71 0 87 -3 104 -20z"/>
<path d="M6297 1094 c-4 -4 -7 -79 -7 -166 l0 -158 38 0 37 0 0 122 c0 74 4
123 10 125 6 2 51 -53 99 -122 l89 -125 69 0 68 0 -2 163 -3 162 -35 0 -35 0
-3 -127 c-1 -71 -6 -128 -10 -128 -4 1 -47 58 -97 128 l-90 127 -60 3 c-34 2
-64 0 -68 -4z"/>
</g>
</svg>
