<?xml version="1.0" standalone="no"?>
<!DOCTYPE svg PUBLIC "-//W3C//DTD SVG 20010904//EN"
 "http://www.w3.org/TR/2001/REC-SVG-20010904/DTD/svg10.dtd">
<svg version="1.0" xmlns="http://www.w3.org/2000/svg"
 width="348.000000pt" height="348.000000pt" viewBox="0 0 348.000000 348.000000"
 preserveAspectRatio="xMidYMid meet">
<metadata>
Created by potrace 1.16, written by Peter Selinger 2001-2019
</metadata>
<g transform="translate(0.000000,348.000000) scale(0.100000,-0.100000)"
fill="#000000" stroke="none">
<path d="M1375 3010 c-3 -5 -15 -10 -25 -10 -13 0 -37 -26 -71 -77 -116 -173
-201 -257 -386 -382 -38 -25 -63 -49 -63 -59 0 -10 -5 -23 -11 -29 -8 -8 -5
-41 12 -125 31 -150 31 -320 1 -468 -30 -146 -23 -164 101 -245 118 -77 255
-215 332 -333 37 -57 66 -92 77 -92 9 0 20 -5 24 -11 8 -13 62 -8 189 15 113
21 249 20 399 -5 100 -17 133 -19 147 -10 10 6 25 11 33 11 8 0 36 32 62 72
114 171 194 252 367 367 42 28 77 58 77 66 0 9 5 24 12 35 10 15 8 38 -6 112
-28 139 -32 303 -11 429 28 167 28 167 11 204 -12 24 -44 53 -109 97 -116 78
-244 207 -323 323 -44 66 -70 95 -97 108 -36 17 -41 17 -140 -4 -141 -30 -332
-30 -477 -1 -122 25 -117 25 -125 12z m149 -452 c91 -222 166 -408 166 -414 0
-9 -803 315 -818 331 -3 3 -3 6 -1 8 191 120 330 249 419 389 30 48 58 87 61
87 3 1 81 -180 173 -401z m651 327 c111 -163 203 -254 362 -359 35 -23 61 -45
60 -49 -3 -10 -809 -347 -816 -341 -2 1 65 167 148 367 186 451 191 461 195
456 2 -2 25 -35 51 -74z m-525 -952 c-27 -65 -103 -248 -169 -408 -66 -159
-123 -291 -128 -292 -4 -1 -31 33 -60 75 -98 147 -187 235 -341 340 -62 42
-80 59 -70 66 21 13 791 334 805 335 7 1 -9 -49 -37 -116z m549 -53 c221 -91
401 -168 401 -172 0 -4 -42 -35 -92 -70 -118 -80 -236 -198 -316 -315 -35 -51
-66 -93 -70 -93 -4 0 -80 177 -169 393 -192 465 -179 431 -165 426 6 -2 191
-78 411 -169z"/>
<path d="M0 900 c0 -189 16 -204 214 -198 171 4 170 3 174 178 l4 130 -46 0
-46 0 0 -104 c0 -84 -3 -106 -17 -117 -22 -19 -157 -19 -175 -1 -9 8 -14 49
-16 117 l-4 105 -44 0 -44 0 0 -110z"/>
<path d="M460 855 l0 -155 45 0 45 0 0 113 0 112 63 -112 c61 -111 63 -113 98
-113 36 0 37 1 97 113 l62 112 0 -112 0 -113 45 0 45 0 0 155 0 156 -71 -3
-72 -3 -48 -90 c-27 -49 -52 -91 -56 -92 -5 -2 -31 39 -59 89 l-51 93 -71 3
-72 3 0 -156z"/>
<path d="M1030 855 l0 -155 173 0 c190 0 210 5 222 58 8 37 -10 83 -36 89
l-20 6 21 14 c15 10 20 25 20 56 0 23 -4 47 -8 54 -16 25 -69 33 -218 33
l-154 0 0 -155z"/>
<path d="M1490 855 l0 -155 45 0 45 0 0 40 0 41 93 -3 92 -3 3 -37 c3 -38 4
-38 48 -38 l44 0 0 45 c0 32 -6 50 -20 62 -19 17 -19 17 0 30 16 11 20 26 20
73 0 51 -3 61 -26 79 -24 19 -40 21 -185 21 l-159 0 0 -155z"/>
<path d="M1930 855 l0 -155 169 0 169 0 4 35 4 34 -126 3 -125 3 0 25 0 24
115 1 115 0 0 30 0 30 -118 3 c-116 3 -118 3 -115 25 3 21 8 22 126 25 l122 3
0 34 0 35 -170 0 -170 0 0 -155z"/>
<path d="M2330 855 l0 -155 155 0 155 0 0 40 0 40 -105 0 -105 0 0 115 0 115
-50 0 -50 0 0 -155z"/>
<path d="M2680 855 l0 -155 155 0 155 0 0 40 0 40 -105 0 -105 0 0 115 0 115
-50 0 -50 0 0 -155z"/>
<path d="M3117 893 c-75 -137 -97 -180 -97 -188 0 -3 21 -5 48 -5 41 0 49 4
62 27 15 26 18 27 111 29 l96 2 17 -29 c15 -26 23 -29 67 -29 l50 0 -52 98
c-29 53 -67 122 -84 152 l-31 55 -61 3 -61 3 -65 -118z"/>
<path d="M540 617 c-22 -11 -25 -19 -25 -72 0 -53 3 -61 25 -73 38 -20 149
-11 166 13 20 27 17 35 -11 35 -14 0 -25 -5 -25 -10 0 -7 -22 -10 -57 -8 l-58
3 0 40 0 40 54 3 c30 2 59 -2 64 -7 19 -19 39 -12 35 11 -2 14 -13 25 -28 29
-42 12 -113 9 -140 -4z"/>
<path d="M795 623 c-36 -10 -45 -24 -45 -78 0 -71 13 -80 110 -80 51 0 83 5
93 14 23 19 23 113 1 132 -17 14 -123 22 -159 12z"/>
<path d="M1510 622 c-24 -7 -25 -12 -25 -77 l0 -69 35 -9 c52 -14 151 -2 167
19 17 23 17 95 0 118 -10 14 -30 19 -83 22 -38 2 -80 0 -94 -4z"/>
<path d="M2513 620 c-20 -8 -23 -17 -23 -68 0 -32 5 -63 12 -70 8 -8 45 -12
100 -12 99 0 108 7 108 77 0 64 -17 77 -102 80 -40 2 -83 -2 -95 -7z"/>
<path d="M1010 545 c0 -68 2 -75 20 -75 13 0 20 7 20 20 0 17 7 20 51 20 42 0
52 -3 56 -20 7 -27 43 -27 43 0 0 11 -7 23 -16 27 -15 6 -15 7 0 19 12 8 16
23 14 46 l-3 33 -92 3 -93 3 0 -76z"/>
<path d="M1250 545 c0 -68 2 -75 20 -75 13 0 20 7 20 20 0 18 7 20 63 20 71 0
87 10 87 55 0 47 -15 55 -107 55 l-83 0 0 -75z"/>
<path d="M1740 545 c0 -68 2 -75 20 -75 13 0 20 7 20 20 0 17 7 20 51 20 42 0
52 -3 56 -20 7 -27 43 -27 43 0 0 11 -7 23 -16 27 -15 6 -15 7 0 19 12 8 16
23 14 46 l-3 33 -92 3 -93 3 0 -76z"/>
<path d="M2038 598 c-9 -13 -27 -47 -42 -75 l-26 -53 24 0 c13 0 26 7 30 15 4
11 21 15 60 15 39 0 55 -4 60 -15 5 -14 46 -22 46 -10 0 3 -17 37 -37 75 -35
63 -41 70 -69 70 -22 0 -36 -7 -46 -22z"/>
<path d="M2750 545 c0 -68 2 -75 20 -75 16 0 19 8 22 62 l3 63 49 -63 c45 -57
52 -62 87 -62 l39 0 0 75 c0 68 -2 75 -20 75 -18 0 -20 -7 -20 -60 0 -33 -3
-60 -7 -60 -5 0 -28 27 -53 60 -41 55 -48 60 -82 60 l-38 0 0 -75z"/>
</g>
</svg>
